ply
format ascii 1.0
comment VTK generated PLY File
comment Exported from Real3d VolViCon
obj_info vtkPolyData points and polygons: vtk4.0
element vertex 373
property float x
property float y
property float z
property float u
property float v
element face 613
property list uchar int vertex_indices
end_header
-25 -25 -25 -24.5 -24.5 
-25 -25 -12.5 -12 -24.5 
-25 -12.5 -25 -24.5 -12 
-25 -25 0 0.5 -24.5 
-25 -12.5 -12.5 -12 -12 
-25 0 -25 -24.5 0.5 
-25 -25 12.5 13 -24.5 
-25 -12.5 0 0.5 -12 
-25 -25 25 25.5 -24.5 
-25 -12.5 12.5 13 -12 
-25 0 0 0.5 0.5 
-25 12.5 -12.5 -12 13 
-25 0 -12.5 -12 0.5 
-25 25 -25 -24.5 25.5 
-25 12.5 -25 -24.5 13 
-25 25 25 25.5 25.5 
-25 25 12.5 13 25.5 
-25 12.5 25 25.5 13 
-25 25 0 0.5 25.5 
-25 12.5 12.5 13 13 
-25 0 25 25.5 0.5 
-25 25 -12.5 -12 25.5 
-25 12.5 0 0.5 13 
-25 0 12.5 13 0.5 
-25 -12.5 25 25.5 -12 
25 -25 -25 24.5 -24.5 
25 -12.5 -25 24.5 -12 
25 -25 -12.5 12 -24.5 
25 0 -25 24.5 0.5 
25 -12.5 -12.5 12 -12 
25 -25 0 -0.5 -24.5 
25 12.5 -25 24.5 13 
25 0 -12.5 12 0.5 
25 25 -25 24.5 25.5 
25 12.5 -12.5 12 13 
25 0 0 -0.5 0.5 
25 -12.5 12.5 -13 -12 
25 -12.5 0 -0.5 -12 
25 -25 25 -25.5 -24.5 
25 -25 12.5 -13 -24.5 
25 25 25 -25.5 25.5 
25 12.5 25 -25.5 13 
25 25 12.5 -13 25.5 
25 0 25 -25.5 0.5 
25 12.5 12.5 -13 13 
25 25 0 -0.5 25.5 
25 -12.5 25 -25.5 -12 
25 0 12.5 -13 0.5 
25 12.5 0 -0.5 13 
25 25 -12.5 12 25.5 
-12.5 -25 -25 -12.25 -24.5 
0 -25 -25 0 -24.5 
-12.5 -25 -12.5 0.25 -24.5 
12.5 -25 -25 12.25 -24.5 
0 -25 -12.5 12.5 -24.5 
12.5 -25 -12.5 24.75 -24.5 
0 -25 0 25 -24.5 
-12.5 -25 0 12.75 -24.5 
12.5 -25 25 -12.75 -24.5 
0 -25 25 0 -24.5 
12.5 -25 12.5 -0.25 -24.5 
12.5 -25 0 12.25 -24.5 
-12.5 25 -25 -12.25 25.5 
-12.5 25 -12.5 0.25 25.5 
0 25 -25 0 25.5 
-12.5 25 0 12.75 25.5 
-12.5 25 12.5 25.25 25.5 
0 25 0 25 25.5 
12.5 25 -12.5 24.75 25.5 
0 25 -12.5 12.5 25.5 
12.5 25 -25 12.25 25.5 
12.5 25 25 -12.75 25.5 
12.5 25 12.5 -0.25 25.5 
0 25 25 0 25.5 
12.5 25 0 12.25 25.5 
0 25 12.5 12.5 25.5 
-12.5 25 25 12.75 25.5 
-12.5 -12.5 -25 -12.25 -12 
-12.5 0 -25 -12.25 0.5 
-12.5 12.5 -25 -12.25 13 
0 0 -25 0 0.5 
12.5 -12.5 -25 12.25 -12 
0 -12.5 -25 0 -12 
12.5 12.5 -25 12.25 13 
12.5 0 -25 12.25 0.5 
0 12.5 -25 0 13 
-12.5 -12.5 25 12.75 -12 
0 -12.5 25 0 -12 
12.5 -12.5 25 -12.75 -12 
0 0 25 0 0.5 
-12.5 12.5 25 12.75 13 
-12.5 0 25 12.75 0.5 
12.5 12.5 25 -12.75 13 
0 12.5 25 0 13 
12.5 0 25 -12.75 0.5 
-25 -18.75 -25 -24.5 -18.25 
-25 -25 -18.75 -18.25 -24.5 
-25 -18.75 -18.75 -18.25 -18.25 
-25 -18.75 -12.5 -12 -18.25 
-25 -25 -6.25 -5.75 -24.5 
-25 -18.75 -6.25 -5.75 -18.25 
-25 -12.5 -18.75 -18.25 -12 
-25 -6.25 -18.75 -18.25 -5.75 
-25 -6.25 -25 -24.5 -5.75 
-25 -18.75 0 0.5 -18.25 
-25 -25 6.25 6.75 -24.5 
-25 -18.75 6.25 6.75 -18.25 
-25 -18.75 18.75 19.25 -18.25 
-25 -6.25 6.25 6.75 -5.75 
-25 -6.25 0 0.5 -5.75 
-25 0 -6.25 -5.75 0.5 
-25 6.25 -6.25 -5.75 6.75 
-25 6.25 -12.5 -12 6.75 
-25 12.5 -18.75 -18.25 13 
-25 18.75 -18.75 -18.25 19.25 
-25 18.75 -25 -24.5 19.25 
-25 6.25 -18.75 -18.25 6.75 
-25 6.25 -25 -24.5 6.75 
-25 0 -18.75 -18.25 0.5 
-25 -12.5 -6.25 -5.75 -12 
-25 -6.25 -6.25 -5.75 -5.75 
-25 -6.25 -12.5 -12 -5.75 
-25 18.75 25 25.5 19.25 
-25 25 18.75 19.25 25.5 
-25 18.75 18.75 19.25 19.25 
-25 18.75 12.5 13 19.25 
-25 25 6.25 6.75 25.5 
-25 18.75 6.25 6.75 19.25 
-25 12.5 18.75 19.25 13 
-25 6.25 18.75 19.25 6.75 
-25 6.25 25 25.5 6.75 
-25 18.75 0 0.5 19.25 
-25 25 -6.25 -5.75 25.5 
-25 18.75 -6.25 -5.75 19.25 
-25 18.75 -12.5 -12 19.25 
-25 25 -18.75 -18.25 25.5 
-25 12.5 -6.25 -5.75 13 
-25 6.25 0 0.5 6.75 
-25 0 6.25 6.75 0.5 
-25 -6.25 12.5 13 -5.75 
-25 -12.5 18.75 19.25 -12 
-25 -18.75 25 25.5 -18.25 
-25 -6.25 18.75 19.25 -5.75 
-25 -6.25 25 25.5 -5.75 
-25 0 18.75 19.25 0.5 
-25 12.5 6.25 6.75 13 
-25 6.25 6.25 6.75 6.75 
-25 6.25 12.5 13 6.75 
25 -25 -18.75 18.25 -24.5 
25 -18.75 -25 24.5 -18.25 
25 -18.75 -18.75 18.25 -18.25 
25 -12.5 -18.75 18.25 -12 
25 -6.25 -25 24.5 -5.75 
25 -6.25 -18.75 18.25 -5.75 
25 -18.75 -12.5 12 -18.25 
25 -18.75 -6.25 5.75 -18.25 
25 -25 -6.25 5.75 -24.5 
25 0 -18.75 18.25 0.5 
25 6.25 -25 24.5 6.75 
25 6.25 -18.75 18.25 6.75 
25 12.5 -18.75 18.25 13 
25 18.75 -25 24.5 19.25 
25 18.75 -18.75 18.25 19.25 
25 6.25 -12.5 12 6.75 
25 6.25 -6.25 5.75 6.75 
25 0 -6.25 5.75 0.5 
25 -6.25 0 -0.5 -5.75 
25 -6.25 6.25 -6.75 -5.75 
25 -12.5 6.25 -6.75 -12 
25 -18.75 12.5 -13 -18.25 
25 -18.75 18.75 -19.25 -18.25 
25 -25 18.75 -19.25 -24.5 
25 -18.75 6.25 -6.75 -18.25 
25 -25 6.25 -6.75 -24.5 
25 -18.75 0 -0.5 -18.25 
25 -6.25 -12.5 12 -5.75 
25 -6.25 -6.25 5.75 -5.75 
25 -12.5 -6.25 5.75 -12 
25 25 18.75 -19.25 25.5 
25 18.75 25 -25.5 19.25 
25 18.75 18.75 -19.25 19.25 
25 12.5 18.75 -19.25 13 
25 6.25 25 -25.5 6.75 
25 6.25 18.75 -19.25 6.75 
25 18.75 12.5 -13 19.25 
25 18.75 6.25 -6.75 19.25 
25 25 6.25 -6.75 25.5 
25 0 18.75 -19.25 0.5 
25 -6.25 25 -25.5 -5.75 
25 -6.25 18.75 -19.25 -5.75 
25 -12.5 18.75 -19.25 -12 
25 -18.75 25 -25.5 -18.25 
25 -6.25 12.5 -13 -5.75 
25 0 6.25 -6.75 0.5 
25 6.25 0 -0.5 6.75 
25 12.5 -6.25 5.75 13 
25 18.75 -12.5 12 19.25 
25 25 -18.75 18.25 25.5 
25 18.75 -6.25 5.75 19.25 
25 25 -6.25 5.75 25.5 
25 18.75 0 -0.5 19.25 
25 6.25 12.5 -13 6.75 
25 6.25 6.25 -6.75 6.75 
25 12.5 6.25 -6.75 13 
-18.75 -25 -25 -18.375 -24.5 
-18.75 -25 -18.75 -12.125 -24.5 
-12.5 -25 -18.75 -6 -24.5 
-6.25 -25 -25 -6.125 -24.5 
-6.25 -25 -18.75 0.125 -24.5 
-18.75 -25 -12.5 -5.875 -24.5 
-18.75 -25 -6.25 0.375 -24.5 
0 -25 -18.75 6.25 -24.5 
6.25 -25 -25 6.125 -24.5 
6.25 -25 -18.75 12.375 -24.5 
12.5 -25 -18.75 18.5 -24.5 
18.75 -25 -25 18.375 -24.5 
18.75 -25 -18.75 24.625 -24.5 
6.25 -25 -12.5 18.625 -24.5 
0 -25 -6.25 18.75 -24.5 
-6.25 -25 0 18.875 -24.5 
-6.25 -25 6.25 25.125 -24.5 
-12.5 -25 6.25 19 -24.5 
-18.75 -25 12.5 19.125 -24.5 
-18.75 -25 6.25 12.875 -24.5 
-18.75 -25 0 6.625 -24.5 
-6.25 -25 -12.5 6.375 -24.5 
-6.25 -25 -6.25 12.625 -24.5 
-12.5 -25 -6.25 6.5 -24.5 
18.75 -25 25 -19.125 -24.5 
18.75 -25 18.75 -12.875 -24.5 
12.5 -25 18.75 -6.5 -24.5 
6.25 -25 25 -6.375 -24.5 
6.25 -25 18.75 -0.125 -24.5 
18.75 -25 12.5 -6.625 -24.5 
18.75 -25 6.25 -0.375 -24.5 
-6.25 -25 25 6.375 -24.5 
0 -25 6.25 18.75 -24.5 
6.25 -25 0 18.625 -24.5 
12.5 -25 -6.25 18.5 -24.5 
18.75 -25 -12.5 18.375 -24.5 
18.75 -25 -6.25 12.125 -24.5 
18.75 -25 0 5.875 -24.5 
6.25 -25 12.5 6.125 -24.5 
6.25 -25 6.25 12.375 -24.5 
12.5 -25 6.25 6 -24.5 
-18.75 25 -25 -18.375 25.5 
-18.75 25 -18.75 -12.125 25.5 
-18.75 25 -12.5 -5.875 25.5 
-18.75 25 -6.25 0.375 25.5 
-12.5 25 -18.75 -6 25.5 
-6.25 25 -18.75 0.125 25.5 
-6.25 25 -25 -6.125 25.5 
-18.75 25 0 6.625 25.5 
-18.75 25 6.25 12.875 25.5 
-18.75 25 12.5 19.125 25.5 
-18.75 25 18.75 25.375 25.5 
-12.5 25 6.25 19 25.5 
-6.25 25 6.25 25.125 25.5 
-6.25 25 0 18.875 25.5 
0 25 -6.25 18.75 25.5 
6.25 25 -6.25 24.875 25.5 
6.25 25 -12.5 18.625 25.5 
12.5 25 -18.75 18.5 25.5 
18.75 25 -18.75 24.625 25.5 
18.75 25 -25 18.375 25.5 
6.25 25 -18.75 12.375 25.5 
6.25 25 -25 6.125 25.5 
0 25 -18.75 6.25 25.5 
-12.5 25 -6.25 6.5 25.5 
-6.25 25 -6.25 12.625 25.5 
-6.25 25 -12.5 6.375 25.5 
18.75 25 25 -19.125 25.5 
18.75 25 18.75 -12.875 25.5 
18.75 25 12.5 -6.625 25.5 
18.75 25 6.25 -0.375 25.5 
12.5 25 18.75 -6.5 25.5 
6.25 25 18.75 -0.125 25.5 
6.25 25 25 -6.375 25.5 
18.75 25 0 5.875 25.5 
18.75 25 -6.25 12.125 25.5 
18.75 25 -12.5 18.375 25.5 
12.5 25 -6.25 18.5 25.5 
6.25 25 0 18.625 25.5 
0 25 6.25 18.75 25.5 
-6.25 25 12.5 18.875 25.5 
-12.5 25 18.75 19 25.5 
-18.75 25 25 19.125 25.5 
-6.25 25 18.75 12.625 25.5 
-6.25 25 25 6.375 25.5 
0 25 18.75 6.25 25.5 
12.5 25 6.25 6 25.5 
6.25 25 6.25 12.375 25.5 
6.25 25 12.5 6.125 25.5 
-18.75 -18.75 -25 -18.375 -18.25 
-18.75 -12.5 -25 -18.375 -12 
-18.75 -6.25 -25 -18.375 -5.75 
-12.5 -18.75 -25 -12.25 -18.25 
-6.25 -18.75 -25 -6.125 -18.25 
-18.75 0 -25 -18.375 0.5 
-18.75 6.25 -25 -18.375 6.75 
-18.75 12.5 -25 -18.375 13 
-18.75 18.75 -25 -18.375 19.25 
-12.5 6.25 -25 -12.25 6.75 
-6.25 6.25 -25 -6.125 6.75 
-6.25 0 -25 -6.125 0.5 
0 -6.25 -25 0 -5.75 
6.25 -6.25 -25 6.125 -5.75 
6.25 -12.5 -25 6.125 -12 
12.5 -18.75 -25 12.25 -18.25 
18.75 -18.75 -25 18.375 -18.25 
6.25 -18.75 -25 6.125 -18.25 
0 -18.75 -25 0 -18.25 
-12.5 -6.25 -25 -12.25 -5.75 
-6.25 -6.25 -25 -6.125 -5.75 
-6.25 -12.5 -25 -6.125 -12 
18.75 18.75 -25 18.375 19.25 
18.75 12.5 -25 18.375 13 
18.75 6.25 -25 18.375 6.75 
12.5 18.75 -25 12.25 19.25 
6.25 18.75 -25 6.125 19.25 
18.75 0 -25 18.375 0.5 
18.75 -6.25 -25 18.375 -5.75 
18.75 -12.5 -25 18.375 -12 
12.5 -6.25 -25 12.25 -5.75 
6.25 0 -25 6.125 0.5 
0 6.25 -25 0 6.75 
-6.25 12.5 -25 -6.125 13 
-12.5 18.75 -25 -12.25 19.25 
-6.25 18.75 -25 -6.125 19.25 
0 18.75 -25 0 19.25 
12.5 6.25 -25 12.25 6.75 
6.25 6.25 -25 6.125 6.75 
6.25 12.5 -25 6.125 13 
-18.75 -18.75 25 19.125 -18.25 
-12.5 -18.75 25 12.75 -18.25 
-6.25 -18.75 25 6.375 -18.25 
-18.75 -12.5 25 19.125 -12 
-18.75 -6.25 25 19.125 -5.75 
0 -18.75 25 0 -18.25 
6.25 -18.75 25 -6.375 -18.25 
12.5 -18.75 25 -12.75 -18.25 
18.75 -18.75 25 -19.125 -18.25 
6.25 -12.5 25 -6.375 -12 
6.25 -6.25 25 -6.375 -5.75 
0 -6.25 25 0 -5.75 
-6.25 0 25 6.375 0.5 
-6.25 6.25 25 6.375 6.75 
-12.5 6.25 25 12.75 6.75 
-18.75 12.5 25 19.125 13 
-18.75 18.75 25 19.125 19.25 
-18.75 6.25 25 19.125 6.75 
-18.75 0 25 19.125 0.5 
-6.25 -12.5 25 6.375 -12 
-6.25 -6.25 25 6.375 -5.75 
-12.5 -6.25 25 12.75 -5.75 
18.75 18.75 25 -19.125 19.25 
12.5 18.75 25 -12.75 19.25 
6.25 18.75 25 -6.375 19.25 
18.75 12.5 25 -19.125 13 
18.75 6.25 25 -19.125 6.75 
0 18.75 25 0 19.25 
-6.25 18.75 25 6.375 19.25 
-12.5 18.75 25 12.75 19.25 
-6.25 12.5 25 6.375 13 
0 6.25 25 0 6.75 
6.25 0 25 -6.375 0.5 
12.5 -6.25 25 -12.75 -5.75 
18.75 -12.5 25 -19.125 -12 
18.75 -6.25 25 -19.125 -5.75 
18.75 0 25 -19.125 0.5 
6.25 12.5 25 -6.375 13 
6.25 6.25 25 -6.375 6.75 
12.5 6.25 25 -12.75 6.75 
3 0 96 95 
3 96 1 97 
3 97 2 95 
3 96 97 95 
3 1 99 98 
3 99 3 100 
3 100 4 98 
3 99 100 98 
3 4 102 101 
3 102 5 103 
3 103 2 101 
3 102 103 101 
3 1 98 97 
3 98 4 101 
3 101 2 97 
3 98 101 97 
3 3 105 104 
3 105 106 104 
3 10 111 110 
3 111 11 112 
3 112 12 110 
3 111 112 110 
3 11 114 113 
3 114 13 115 
3 115 14 113 
3 114 115 113 
3 14 117 116 
3 117 5 118 
3 118 12 116 
3 117 118 116 
3 11 113 112 
3 113 14 116 
3 116 12 112 
3 113 116 112 
3 3 104 100 
3 104 7 119 
3 119 4 100 
3 104 119 100 
3 109 10 110 
3 110 12 120 
3 109 110 120 
3 12 118 121 
3 118 5 102 
3 102 4 121 
3 118 102 121 
3 120 12 121 
3 121 4 119 
3 15 123 122 
3 123 16 124 
3 124 17 122 
3 123 124 122 
3 16 126 125 
3 126 18 127 
3 127 19 125 
3 126 127 125 
3 19 129 128 
3 129 20 130 
3 130 17 128 
3 129 130 128 
3 16 125 124 
3 125 19 128 
3 128 17 124 
3 125 128 124 
3 18 132 131 
3 132 21 133 
3 133 22 131 
3 132 133 131 
3 21 135 134 
3 135 13 114 
3 114 11 134 
3 135 114 134 
3 11 111 136 
3 111 10 137 
3 137 22 136 
3 111 137 136 
3 21 134 133 
3 134 11 136 
3 136 22 133 
3 134 136 133 
3 10 108 138 
3 108 9 139 
3 139 23 138 
3 108 139 138 
3 9 107 140 
3 107 8 141 
3 141 24 140 
3 107 141 140 
3 24 143 142 
3 143 20 144 
3 144 23 142 
3 143 144 142 
3 9 140 139 
3 140 24 142 
3 142 23 139 
3 140 142 139 
3 18 131 127 
3 131 22 145 
3 145 19 127 
3 131 145 127 
3 22 137 146 
3 137 10 138 
3 138 23 146 
3 137 138 146 
3 23 144 147 
3 144 20 129 
3 129 19 147 
3 144 129 147 
3 22 146 145 
3 146 23 147 
3 147 19 145 
3 146 147 145 
3 25 149 148 
3 149 26 150 
3 150 27 148 
3 149 150 148 
3 26 152 151 
3 152 28 153 
3 153 29 151 
3 152 153 151 
3 29 155 154 
3 155 30 156 
3 156 27 154 
3 155 156 154 
3 26 151 150 
3 151 29 154 
3 154 27 150 
3 151 154 150 
3 28 158 157 
3 158 31 159 
3 159 32 157 
3 158 159 157 
3 31 161 160 
3 161 33 162 
3 161 162 160 
3 34 164 163 
3 164 35 165 
3 165 32 163 
3 164 165 163 
3 31 160 159 
3 163 32 159 
3 160 163 159 
3 35 167 166 
3 167 36 168 
3 168 37 166 
3 167 168 166 
3 170 38 171 
3 171 39 169 
3 39 173 172 
3 173 30 174 
3 174 37 172 
3 173 174 172 
3 36 169 168 
3 169 39 172 
3 172 37 168 
3 169 172 168 
3 28 157 153 
3 157 32 175 
3 175 29 153 
3 157 175 153 
3 32 165 176 
3 165 35 166 
3 166 37 176 
3 165 166 176 
3 174 30 155 
3 155 29 177 
3 174 155 177 
3 32 176 175 
3 176 37 177 
3 177 29 175 
3 176 177 175 
3 40 179 178 
3 179 41 180 
3 180 42 178 
3 179 180 178 
3 41 182 181 
3 182 43 183 
3 183 44 181 
3 182 183 181 
3 185 45 186 
3 41 181 180 
3 181 44 184 
3 43 188 187 
3 188 46 189 
3 189 47 187 
3 188 189 187 
3 191 38 170 
3 36 167 192 
3 167 35 193 
3 193 47 192 
3 167 193 192 
3 190 36 192 
3 192 47 189 
3 190 192 189 
3 35 164 194 
3 164 34 195 
3 195 48 194 
3 164 195 194 
3 162 33 197 
3 197 49 196 
3 162 197 196 
3 49 199 198 
3 200 48 198 
3 199 200 198 
3 198 48 195 
3 43 187 183 
3 201 44 183 
3 187 201 183 
3 193 35 194 
3 194 48 202 
3 48 200 203 
3 200 45 185 
3 200 185 203 
3 202 48 203 
3 203 44 201 
3 202 203 201 
3 0 204 96 
3 204 50 205 
3 205 1 96 
3 204 205 96 
3 50 207 206 
3 208 52 206 
3 207 208 206 
3 52 210 209 
3 210 3 99 
3 99 1 209 
3 210 99 209 
3 50 206 205 
3 206 52 209 
3 209 1 205 
3 206 209 205 
3 213 54 211 
3 53 215 214 
3 215 25 216 
3 216 55 214 
3 215 216 214 
3 214 55 217 
3 217 54 213 
3 214 217 213 
3 56 220 219 
3 221 57 219 
3 220 221 219 
3 6 105 223 
3 105 3 224 
3 224 57 223 
3 105 224 223 
3 222 6 223 
3 223 57 221 
3 222 223 221 
3 51 211 208 
3 211 54 225 
3 225 52 208 
3 211 225 208 
3 218 56 219 
3 219 57 226 
3 218 219 226 
3 57 224 227 
3 224 3 210 
3 224 210 227 
3 226 57 227 
3 38 228 171 
3 228 58 229 
3 229 39 171 
3 228 229 171 
3 58 231 230 
3 231 59 232 
3 232 60 230 
3 231 232 230 
3 173 39 233 
3 58 230 229 
3 230 60 233 
3 233 39 229 
3 230 233 229 
3 55 216 239 
3 216 25 148 
3 148 27 239 
3 216 148 239 
3 27 156 240 
3 55 239 238 
3 239 27 240 
3 239 240 238 
3 237 61 243 
3 236 237 243 
3 61 241 244 
3 241 234 244 
3 243 61 244 
3 243 244 242 
3 13 135 245 
3 135 21 246 
3 246 62 245 
3 135 246 245 
3 21 132 247 
3 132 18 248 
3 248 63 247 
3 132 248 247 
3 63 250 249 
3 250 64 251 
3 251 62 249 
3 250 251 249 
3 21 247 246 
3 247 63 249 
3 249 62 246 
3 247 249 246 
3 18 126 252 
3 126 16 253 
3 253 65 252 
3 126 253 252 
3 16 123 254 
3 123 15 255 
3 255 66 254 
3 123 255 254 
3 66 257 256 
3 257 67 258 
3 258 65 256 
3 257 258 256 
3 16 254 253 
3 254 66 256 
3 256 65 253 
3 254 256 253 
3 260 68 261 
3 261 69 259 
3 260 261 259 
3 68 263 262 
3 263 33 264 
3 264 70 262 
3 263 264 262 
3 70 266 265 
3 266 64 267 
3 267 69 265 
3 266 267 265 
3 68 262 261 
3 262 70 265 
3 265 69 261 
3 262 265 261 
3 18 252 248 
3 252 65 268 
3 268 63 248 
3 252 268 248 
3 259 69 269 
3 69 267 270 
3 267 64 250 
3 250 63 270 
3 267 250 270 
3 65 269 268 
3 269 69 270 
3 270 63 268 
3 269 270 268 
3 40 178 271 
3 178 42 272 
3 272 71 271 
3 178 272 271 
3 186 45 274 
3 72 276 275 
3 276 73 277 
3 277 71 275 
3 276 277 275 
3 42 273 272 
3 273 72 275 
3 275 71 272 
3 273 275 272 
3 279 74 278 
3 199 279 278 
3 49 197 280 
3 197 33 263 
3 263 68 280 
3 197 263 280 
3 68 260 281 
3 280 68 281 
3 281 74 279 
3 280 281 279 
3 257 66 284 
3 284 75 283 
3 257 284 283 
3 66 255 285 
3 255 15 286 
3 286 76 285 
3 255 286 285 
3 76 288 287 
3 288 73 289 
3 289 75 287 
3 288 289 287 
3 66 285 284 
3 285 76 287 
3 287 75 284 
3 285 287 284 
3 45 278 274 
3 74 282 291 
3 283 75 291 
3 75 289 292 
3 289 73 276 
3 276 72 292 
3 289 276 292 
3 74 291 290 
3 291 75 292 
3 0 95 204 
3 95 2 293 
3 293 50 204 
3 95 293 204 
3 2 103 294 
3 103 5 295 
3 295 77 294 
3 103 295 294 
3 77 297 296 
3 297 51 207 
3 207 50 296 
3 2 294 293 
3 294 77 296 
3 296 50 293 
3 294 296 293 
3 5 117 298 
3 117 14 299 
3 299 78 298 
3 117 299 298 
3 14 115 300 
3 115 13 301 
3 301 79 300 
3 115 301 300 
3 303 80 304 
3 14 300 299 
3 300 79 302 
3 302 78 299 
3 300 302 299 
3 80 306 305 
3 306 81 307 
3 307 82 305 
3 306 307 305 
3 309 25 215 
3 215 53 308 
3 309 215 308 
3 53 212 310 
3 212 51 311 
3 212 311 310 
3 308 53 310 
3 5 298 295 
3 298 78 312 
3 312 77 295 
3 298 312 295 
3 304 80 305 
3 305 82 313 
3 304 305 313 
3 311 51 297 
3 313 82 314 
3 33 161 264 
3 161 31 315 
3 315 70 264 
3 161 315 264 
3 31 158 316 
3 158 28 317 
3 317 83 316 
3 158 317 316 
3 83 319 318 
3 319 64 266 
3 266 70 318 
3 319 266 318 
3 31 316 315 
3 316 83 318 
3 318 70 315 
3 316 318 315 
3 28 152 320 
3 152 26 321 
3 152 321 320 
3 26 149 322 
3 149 25 309 
3 149 309 322 
3 81 306 323 
3 306 80 324 
3 324 84 323 
3 306 324 323 
3 26 322 321 
3 80 303 325 
3 79 301 327 
3 301 13 245 
3 245 62 327 
3 301 245 327 
3 62 251 328 
3 251 64 329 
3 329 85 328 
3 251 329 328 
3 79 327 326 
3 327 62 328 
3 328 85 326 
3 327 328 326 
3 28 320 317 
3 84 324 331 
3 324 80 325 
3 324 325 331 
3 85 329 332 
3 329 64 319 
3 319 83 332 
3 329 319 332 
3 84 331 330 
3 333 24 141 
3 235 59 335 
3 335 86 334 
3 235 335 334 
3 86 337 336 
3 337 20 143 
3 143 24 336 
3 337 143 336 
3 334 86 336 
3 336 24 333 
3 334 336 333 
3 59 231 338 
3 231 58 339 
3 339 87 338 
3 231 339 338 
3 58 228 340 
3 228 38 341 
3 341 88 340 
3 228 341 340 
3 88 343 342 
3 343 89 344 
3 344 87 342 
3 343 344 342 
3 58 340 339 
3 340 88 342 
3 342 87 339 
3 340 342 339 
3 89 346 345 
3 346 90 347 
3 347 91 345 
3 346 347 345 
3 90 349 348 
3 349 15 122 
3 122 17 348 
3 349 122 348 
3 17 130 350 
3 130 20 351 
3 351 91 350 
3 130 351 350 
3 90 348 347 
3 348 17 350 
3 350 91 347 
3 348 350 347 
3 59 338 335 
3 338 87 352 
3 352 86 335 
3 338 352 335 
3 87 344 353 
3 344 89 345 
3 345 91 353 
3 344 345 353 
3 91 351 354 
3 351 20 337 
3 337 86 354 
3 351 337 354 
3 87 353 352 
3 353 91 354 
3 354 86 352 
3 353 354 352 
3 40 271 179 
3 271 71 355 
3 355 41 179 
3 271 355 179 
3 71 277 356 
3 277 73 357 
3 357 92 356 
3 277 357 356 
3 92 359 358 
3 359 43 182 
3 182 41 358 
3 359 182 358 
3 71 356 355 
3 356 92 358 
3 358 41 355 
3 356 358 355 
3 73 288 360 
3 288 76 361 
3 361 93 360 
3 288 361 360 
3 76 286 362 
3 286 15 349 
3 349 90 362 
3 286 349 362 
3 90 346 363 
3 346 89 364 
3 364 93 363 
3 346 364 363 
3 76 362 361 
3 362 90 363 
3 363 93 361 
3 362 363 361 
3 89 343 365 
3 343 88 366 
3 366 94 365 
3 343 366 365 
3 88 341 367 
3 341 38 191 
3 191 46 367 
3 341 191 367 
3 46 188 368 
3 188 43 369 
3 369 94 368 
3 188 369 368 
3 88 367 366 
3 367 46 368 
3 368 94 366 
3 367 368 366 
3 73 360 357 
3 360 93 370 
3 370 92 357 
3 360 370 357 
3 93 364 371 
3 364 89 365 
3 365 94 371 
3 364 365 371 
3 94 369 372 
3 369 43 359 
3 359 92 372 
3 369 359 372 
3 93 371 370 
3 371 94 372 
3 372 92 370 
3 371 372 370 
