ply
format ascii 1.0
comment VTK generated PLY File
comment Exported from Real3d VolViCon
obj_info vtkPolyData points and polygons: vtk4.0
element vertex 385
property float x
property float y
property float z
property float u
property float v
element face 633
property list uchar int vertex_indices
end_header
-25 -25 -25 -24.5 -24.5 
-25 -25 -12.5 -12 -24.5 
-25 -12.5 -25 -24.5 -12 
-25 -25 0 0.5 -24.5 
-25 -12.5 -12.5 -12 -12 
-25 0 -25 -24.5 0.5 
-25 -25 12.5 13 -24.5 
-25 -12.5 0 0.5 -12 
-25 -25 25 25.5 -24.5 
-25 -12.5 12.5 13 -12 
-25 0 0 0.5 0.5 
-25 12.5 -12.5 -12 13 
-25 0 -12.5 -12 0.5 
-25 25 -25 -24.5 25.5 
-25 12.5 -25 -24.5 13 
-25 25 25 25.5 25.5 
-25 25 12.5 13 25.5 
-25 12.5 25 25.5 13 
-25 25 0 0.5 25.5 
-25 12.5 12.5 13 13 
-25 0 25 25.5 0.5 
-25 25 -12.5 -12 25.5 
-25 12.5 0 0.5 13 
-25 0 12.5 13 0.5 
-25 -12.5 25 25.5 -12 
25 -25 -25 24.5 -24.5 
25 -12.5 -25 24.5 -12 
25 -25 -12.5 12 -24.5 
25 0 -25 24.5 0.5 
25 -12.5 -12.5 12 -12 
25 -25 0 -0.5 -24.5 
25 12.5 -25 24.5 13 
25 0 -12.5 12 0.5 
25 25 -25 24.5 25.5 
25 12.5 -12.5 12 13 
25 0 0 -0.5 0.5 
25 -12.5 12.5 -13 -12 
25 -12.5 0 -0.5 -12 
25 -25 25 -25.5 -24.5 
25 -25 12.5 -13 -24.5 
25 25 25 -25.5 25.5 
25 12.5 25 -25.5 13 
25 25 12.5 -13 25.5 
25 0 25 -25.5 0.5 
25 12.5 12.5 -13 13 
25 25 0 -0.5 25.5 
25 -12.5 25 -25.5 -12 
25 0 12.5 -13 0.5 
25 12.5 0 -0.5 13 
25 25 -12.5 12 25.5 
-12.5 -25 -25 -12.25 -24.5 
0 -25 -25 0 -24.5 
-12.5 -25 -12.5 0.25 -24.5 
12.5 -25 -25 12.25 -24.5 
0 -25 -12.5 12.5 -24.5 
12.5 -25 -12.5 24.75 -24.5 
0 -25 0 25 -24.5 
-12.5 -25 12.5 25.25 -24.5 
-12.5 -25 0 12.75 -24.5 
12.5 -25 25 -12.75 -24.5 
0 -25 25 0 -24.5 
12.5 -25 12.5 -0.25 -24.5 
-12.5 -25 25 12.75 -24.5 
0 -25 12.5 12.5 -24.5 
12.5 -25 0 12.25 -24.5 
-12.5 25 -25 -12.25 25.5 
-12.5 25 -12.5 0.25 25.5 
0 25 -25 0 25.5 
-12.5 25 0 12.75 25.5 
-12.5 25 12.5 25.25 25.5 
0 25 0 25 25.5 
12.5 25 -12.5 24.75 25.5 
0 25 -12.5 12.5 25.5 
12.5 25 -25 12.25 25.5 
12.5 25 25 -12.75 25.5 
12.5 25 12.5 -0.25 25.5 
0 25 25 0 25.5 
12.5 25 0 12.25 25.5 
0 25 12.5 12.5 25.5 
-12.5 25 25 12.75 25.5 
-12.5 -12.5 -25 -12.25 -12 
-12.5 0 -25 -12.25 0.5 
-12.5 12.5 -25 -12.25 13 
0 0 -25 0 0.5 
12.5 -12.5 -25 12.25 -12 
0 -12.5 -25 0 -12 
12.5 12.5 -25 12.25 13 
12.5 0 -25 12.25 0.5 
0 12.5 -25 0 13 
-12.5 -12.5 25 12.75 -12 
0 -12.5 25 0 -12 
12.5 -12.5 25 -12.75 -12 
0 0 25 0 0.5 
-12.5 12.5 25 12.75 13 
-12.5 0 25 12.75 0.5 
12.5 12.5 25 -12.75 13 
0 12.5 25 0 13 
12.5 0 25 -12.75 0.5 
-25 -18.75 -25 -24.5 -18.25 
-25 -25 -18.75 -18.25 -24.5 
-25 -18.75 -18.75 -18.25 -18.25 
-25 -18.75 -12.5 -12 -18.25 
-25 -25 -6.25 -5.75 -24.5 
-25 -18.75 -6.25 -5.75 -18.25 
-25 -12.5 -18.75 -18.25 -12 
-25 -6.25 -18.75 -18.25 -5.75 
-25 -6.25 -25 -24.5 -5.75 
-25 -18.75 0 0.5 -18.25 
-25 -25 6.25 6.75 -24.5 
-25 -18.75 6.25 6.75 -18.25 
-25 -18.75 12.5 13 -18.25 
-25 -25 18.75 19.25 -24.5 
-25 -18.75 18.75 19.25 -18.25 
-25 -12.5 6.25 6.75 -12 
-25 -6.25 6.25 6.75 -5.75 
-25 -6.25 0 0.5 -5.75 
-25 0 -6.25 -5.75 0.5 
-25 6.25 -6.25 -5.75 6.75 
-25 6.25 -12.5 -12 6.75 
-25 12.5 -18.75 -18.25 13 
-25 18.75 -18.75 -18.25 19.25 
-25 18.75 -25 -24.5 19.25 
-25 6.25 -18.75 -18.25 6.75 
-25 6.25 -25 -24.5 6.75 
-25 0 -18.75 -18.25 0.5 
-25 -12.5 -6.25 -5.75 -12 
-25 -6.25 -6.25 -5.75 -5.75 
-25 -6.25 -12.5 -12 -5.75 
-25 18.75 25 25.5 19.25 
-25 25 18.75 19.25 25.5 
-25 18.75 18.75 19.25 19.25 
-25 18.75 12.5 13 19.25 
-25 25 6.25 6.75 25.5 
-25 18.75 6.25 6.75 19.25 
-25 12.5 18.75 19.25 13 
-25 6.25 18.75 19.25 6.75 
-25 6.25 25 25.5 6.75 
-25 18.75 0 0.5 19.25 
-25 25 -6.25 -5.75 25.5 
-25 18.75 -6.25 -5.75 19.25 
-25 18.75 -12.5 -12 19.25 
-25 25 -18.75 -18.25 25.5 
-25 12.5 -6.25 -5.75 13 
-25 6.25 0 0.5 6.75 
-25 0 6.25 6.75 0.5 
-25 -6.25 12.5 13 -5.75 
-25 -12.5 18.75 19.25 -12 
-25 -18.75 25 25.5 -18.25 
-25 -6.25 18.75 19.25 -5.75 
-25 -6.25 25 25.5 -5.75 
-25 0 18.75 19.25 0.5 
-25 12.5 6.25 6.75 13 
-25 6.25 6.25 6.75 6.75 
-25 6.25 12.5 13 6.75 
25 -25 -18.75 18.25 -24.5 
25 -18.75 -25 24.5 -18.25 
25 -18.75 -18.75 18.25 -18.25 
25 -12.5 -18.75 18.25 -12 
25 -6.25 -25 24.5 -5.75 
25 -6.25 -18.75 18.25 -5.75 
25 -18.75 -12.5 12 -18.25 
25 -18.75 -6.25 5.75 -18.25 
25 -25 -6.25 5.75 -24.5 
25 0 -18.75 18.25 0.5 
25 6.25 -25 24.5 6.75 
25 6.25 -18.75 18.25 6.75 
25 12.5 -18.75 18.25 13 
25 18.75 -25 24.5 19.25 
25 18.75 -18.75 18.25 19.25 
25 6.25 -12.5 12 6.75 
25 6.25 -6.25 5.75 6.75 
25 0 -6.25 5.75 0.5 
25 -6.25 0 -0.5 -5.75 
25 -6.25 6.25 -6.75 -5.75 
25 -12.5 6.25 -6.75 -12 
25 -18.75 12.5 -13 -18.25 
25 -18.75 18.75 -19.25 -18.25 
25 -25 18.75 -19.25 -24.5 
25 -18.75 6.25 -6.75 -18.25 
25 -25 6.25 -6.75 -24.5 
25 -18.75 0 -0.5 -18.25 
25 -6.25 -12.5 12 -5.75 
25 -6.25 -6.25 5.75 -5.75 
25 -12.5 -6.25 5.75 -12 
25 25 18.75 -19.25 25.5 
25 18.75 25 -25.5 19.25 
25 18.75 18.75 -19.25 19.25 
25 12.5 18.75 -19.25 13 
25 6.25 25 -25.5 6.75 
25 6.25 18.75 -19.25 6.75 
25 18.75 12.5 -13 19.25 
25 18.75 6.25 -6.75 19.25 
25 25 6.25 -6.75 25.5 
25 0 18.75 -19.25 0.5 
25 -6.25 25 -25.5 -5.75 
25 -6.25 18.75 -19.25 -5.75 
25 -12.5 18.75 -19.25 -12 
25 -18.75 25 -25.5 -18.25 
25 -6.25 12.5 -13 -5.75 
25 0 6.25 -6.75 0.5 
25 6.25 0 -0.5 6.75 
25 12.5 -6.25 5.75 13 
25 18.75 -12.5 12 19.25 
25 25 -18.75 18.25 25.5 
25 18.75 -6.25 5.75 19.25 
25 25 -6.25 5.75 25.5 
25 18.75 0 -0.5 19.25 
25 6.25 12.5 -13 6.75 
25 6.25 6.25 -6.75 6.75 
25 12.5 6.25 -6.75 13 
-18.75 -25 -25 -18.375 -24.5 
-18.75 -25 -18.75 -12.125 -24.5 
-12.5 -25 -18.75 -6 -24.5 
-6.25 -25 -25 -6.125 -24.5 
-6.25 -25 -18.75 0.125 -24.5 
-18.75 -25 -12.5 -5.875 -24.5 
-18.75 -25 -6.25 0.375 -24.5 
0 -25 -18.75 6.25 -24.5 
6.25 -25 -25 6.125 -24.5 
6.25 -25 -18.75 12.375 -24.5 
12.5 -25 -18.75 18.5 -24.5 
18.75 -25 -25 18.375 -24.5 
18.75 -25 -18.75 24.625 -24.5 
6.25 -25 -12.5 18.625 -24.5 
0 -25 -6.25 18.75 -24.5 
-6.25 -25 0 18.875 -24.5 
-6.25 -25 6.25 25.125 -24.5 
-12.5 -25 6.25 19 -24.5 
-18.75 -25 12.5 19.125 -24.5 
-18.75 -25 18.75 25.375 -24.5 
-18.75 -25 6.25 12.875 -24.5 
-18.75 -25 0 6.625 -24.5 
-6.25 -25 -12.5 6.375 -24.5 
-6.25 -25 -6.25 12.625 -24.5 
-12.5 -25 -6.25 6.5 -24.5 
18.75 -25 25 -19.125 -24.5 
18.75 -25 18.75 -12.875 -24.5 
12.5 -25 18.75 -6.5 -24.5 
6.25 -25 25 -6.375 -24.5 
6.25 -25 18.75 -0.125 -24.5 
18.75 -25 12.5 -6.625 -24.5 
18.75 -25 6.25 -0.375 -24.5 
0 -25 18.75 6.25 -24.5 
-6.25 -25 25 6.375 -24.5 
-6.25 -25 18.75 12.625 -24.5 
-12.5 -25 18.75 19 -24.5 
-18.75 -25 25 19.125 -24.5 
-6.25 -25 12.5 18.875 -24.5 
0 -25 6.25 18.75 -24.5 
6.25 -25 0 18.625 -24.5 
12.5 -25 -6.25 18.5 -24.5 
18.75 -25 -12.5 18.375 -24.5 
18.75 -25 -6.25 12.125 -24.5 
18.75 -25 0 5.875 -24.5 
6.25 -25 12.5 6.125 -24.5 
6.25 -25 6.25 12.375 -24.5 
12.5 -25 6.25 6 -24.5 
-18.75 25 -25 -18.375 25.5 
-18.75 25 -18.75 -12.125 25.5 
-18.75 25 -12.5 -5.875 25.5 
-18.75 25 -6.25 0.375 25.5 
-12.5 25 -18.75 -6 25.5 
-6.25 25 -18.75 0.125 25.5 
-6.25 25 -25 -6.125 25.5 
-18.75 25 0 6.625 25.5 
-18.75 25 6.25 12.875 25.5 
-18.75 25 12.5 19.125 25.5 
-18.75 25 18.75 25.375 25.5 
-12.5 25 6.25 19 25.5 
-6.25 25 6.25 25.125 25.5 
-6.25 25 0 18.875 25.5 
0 25 -6.25 18.75 25.5 
6.25 25 -6.25 24.875 25.5 
6.25 25 -12.5 18.625 25.5 
12.5 25 -18.75 18.5 25.5 
18.75 25 -18.75 24.625 25.5 
18.75 25 -25 18.375 25.5 
6.25 25 -18.75 12.375 25.5 
6.25 25 -25 6.125 25.5 
0 25 -18.75 6.25 25.5 
-12.5 25 -6.25 6.5 25.5 
-6.25 25 -6.25 12.625 25.5 
-6.25 25 -12.5 6.375 25.5 
18.75 25 25 -19.125 25.5 
18.75 25 18.75 -12.875 25.5 
18.75 25 12.5 -6.625 25.5 
18.75 25 6.25 -0.375 25.5 
12.5 25 18.75 -6.5 25.5 
6.25 25 18.75 -0.125 25.5 
6.25 25 25 -6.375 25.5 
18.75 25 0 5.875 25.5 
18.75 25 -6.25 12.125 25.5 
18.75 25 -12.5 18.375 25.5 
12.5 25 -6.25 18.5 25.5 
6.25 25 0 18.625 25.5 
0 25 6.25 18.75 25.5 
-6.25 25 12.5 18.875 25.5 
-12.5 25 18.75 19 25.5 
-18.75 25 25 19.125 25.5 
-6.25 25 18.75 12.625 25.5 
-6.25 25 25 6.375 25.5 
0 25 18.75 6.25 25.5 
12.5 25 6.25 6 25.5 
6.25 25 6.25 12.375 25.5 
6.25 25 12.5 6.125 25.5 
-18.75 -18.75 -25 -18.375 -18.25 
-18.75 -12.5 -25 -18.375 -12 
-18.75 -6.25 -25 -18.375 -5.75 
-12.5 -18.75 -25 -12.25 -18.25 
-6.25 -18.75 -25 -6.125 -18.25 
-18.75 0 -25 -18.375 0.5 
-18.75 6.25 -25 -18.375 6.75 
-18.75 12.5 -25 -18.375 13 
-18.75 18.75 -25 -18.375 19.25 
-12.5 6.25 -25 -12.25 6.75 
-6.25 6.25 -25 -6.125 6.75 
-6.25 0 -25 -6.125 0.5 
0 -6.25 -25 0 -5.75 
6.25 -6.25 -25 6.125 -5.75 
6.25 -12.5 -25 6.125 -12 
12.5 -18.75 -25 12.25 -18.25 
18.75 -18.75 -25 18.375 -18.25 
6.25 -18.75 -25 6.125 -18.25 
0 -18.75 -25 0 -18.25 
-12.5 -6.25 -25 -12.25 -5.75 
-6.25 -6.25 -25 -6.125 -5.75 
-6.25 -12.5 -25 -6.125 -12 
18.75 18.75 -25 18.375 19.25 
18.75 12.5 -25 18.375 13 
18.75 6.25 -25 18.375 6.75 
12.5 18.75 -25 12.25 19.25 
6.25 18.75 -25 6.125 19.25 
18.75 0 -25 18.375 0.5 
18.75 -6.25 -25 18.375 -5.75 
18.75 -12.5 -25 18.375 -12 
12.5 -6.25 -25 12.25 -5.75 
6.25 0 -25 6.125 0.5 
0 6.25 -25 0 6.75 
-6.25 12.5 -25 -6.125 13 
-12.5 18.75 -25 -12.25 19.25 
-6.25 18.75 -25 -6.125 19.25 
0 18.75 -25 0 19.25 
12.5 6.25 -25 12.25 6.75 
6.25 6.25 -25 6.125 6.75 
6.25 12.5 -25 6.125 13 
-18.75 -18.75 25 19.125 -18.25 
-12.5 -18.75 25 12.75 -18.25 
-6.25 -18.75 25 6.375 -18.25 
-18.75 -12.5 25 19.125 -12 
-18.75 -6.25 25 19.125 -5.75 
0 -18.75 25 0 -18.25 
6.25 -18.75 25 -6.375 -18.25 
12.5 -18.75 25 -12.75 -18.25 
18.75 -18.75 25 -19.125 -18.25 
6.25 -12.5 25 -6.375 -12 
6.25 -6.25 25 -6.375 -5.75 
0 -6.25 25 0 -5.75 
-6.25 0 25 6.375 0.5 
-6.25 6.25 25 6.375 6.75 
-12.5 6.25 25 12.75 6.75 
-18.75 12.5 25 19.125 13 
-18.75 18.75 25 19.125 19.25 
-18.75 6.25 25 19.125 6.75 
-18.75 0 25 19.125 0.5 
-6.25 -12.5 25 6.375 -12 
-6.25 -6.25 25 6.375 -5.75 
-12.5 -6.25 25 12.75 -5.75 
18.75 18.75 25 -19.125 19.25 
12.5 18.75 25 -12.75 19.25 
6.25 18.75 25 -6.375 19.25 
18.75 12.5 25 -19.125 13 
18.75 6.25 25 -19.125 6.75 
0 18.75 25 0 19.25 
-6.25 18.75 25 6.375 19.25 
-12.5 18.75 25 12.75 19.25 
-6.25 12.5 25 6.375 13 
0 6.25 25 0 6.75 
6.25 0 25 -6.375 0.5 
12.5 -6.25 25 -12.75 -5.75 
18.75 -12.5 25 -19.125 -12 
18.75 -6.25 25 -19.125 -5.75 
18.75 0 25 -19.125 0.5 
6.25 12.5 25 -6.375 13 
6.25 6.25 25 -6.375 6.75 
12.5 6.25 25 -12.75 6.75 
3 0 99 98 
3 99 1 100 
3 100 2 98 
3 99 100 98 
3 1 102 101 
3 102 3 103 
3 103 4 101 
3 102 103 101 
3 4 105 104 
3 105 5 106 
3 106 2 104 
3 105 106 104 
3 1 101 100 
3 101 4 104 
3 104 2 100 
3 101 104 100 
3 3 108 107 
3 108 109 107 
3 111 8 112 
3 112 9 110 
3 111 112 110 
3 110 9 113 
3 10 117 116 
3 117 11 118 
3 118 12 116 
3 117 118 116 
3 11 120 119 
3 120 13 121 
3 121 14 119 
3 120 121 119 
3 14 123 122 
3 123 5 124 
3 124 12 122 
3 123 124 122 
3 11 119 118 
3 119 14 122 
3 122 12 118 
3 119 122 118 
3 3 107 103 
3 107 7 125 
3 125 4 103 
3 107 125 103 
3 115 10 116 
3 116 12 126 
3 115 116 126 
3 12 124 127 
3 124 5 105 
3 105 4 127 
3 124 105 127 
3 126 12 127 
3 127 4 125 
3 15 129 128 
3 129 16 130 
3 130 17 128 
3 129 130 128 
3 16 132 131 
3 132 18 133 
3 133 19 131 
3 132 133 131 
3 19 135 134 
3 135 20 136 
3 136 17 134 
3 135 136 134 
3 16 131 130 
3 131 19 134 
3 134 17 130 
3 131 134 130 
3 18 138 137 
3 138 21 139 
3 139 22 137 
3 138 139 137 
3 21 141 140 
3 141 13 120 
3 120 11 140 
3 141 120 140 
3 11 117 142 
3 117 10 143 
3 143 22 142 
3 117 143 142 
3 21 140 139 
3 140 11 142 
3 142 22 139 
3 140 142 139 
3 10 114 144 
3 114 9 145 
3 145 23 144 
3 114 145 144 
3 9 112 146 
3 112 8 147 
3 147 24 146 
3 112 147 146 
3 24 149 148 
3 149 20 150 
3 150 23 148 
3 149 150 148 
3 9 146 145 
3 146 24 148 
3 148 23 145 
3 146 148 145 
3 18 137 133 
3 137 22 151 
3 151 19 133 
3 137 151 133 
3 22 143 152 
3 143 10 144 
3 144 23 152 
3 143 144 152 
3 23 150 153 
3 150 20 135 
3 135 19 153 
3 150 135 153 
3 22 152 151 
3 152 23 153 
3 153 19 151 
3 152 153 151 
3 25 155 154 
3 155 26 156 
3 156 27 154 
3 155 156 154 
3 26 158 157 
3 158 28 159 
3 159 29 157 
3 158 159 157 
3 29 161 160 
3 161 30 162 
3 162 27 160 
3 161 162 160 
3 26 157 156 
3 157 29 160 
3 160 27 156 
3 157 160 156 
3 28 164 163 
3 164 31 165 
3 165 32 163 
3 164 165 163 
3 31 167 166 
3 167 33 168 
3 167 168 166 
3 34 170 169 
3 170 35 171 
3 171 32 169 
3 170 171 169 
3 31 166 165 
3 169 32 165 
3 166 169 165 
3 35 173 172 
3 173 36 174 
3 174 37 172 
3 173 174 172 
3 176 38 177 
3 177 39 175 
3 39 179 178 
3 179 30 180 
3 180 37 178 
3 179 180 178 
3 36 175 174 
3 175 39 178 
3 178 37 174 
3 175 178 174 
3 28 163 159 
3 163 32 181 
3 181 29 159 
3 163 181 159 
3 32 171 182 
3 171 35 172 
3 172 37 182 
3 171 172 182 
3 180 30 161 
3 161 29 183 
3 180 161 183 
3 32 182 181 
3 182 37 183 
3 183 29 181 
3 182 183 181 
3 40 185 184 
3 185 41 186 
3 186 42 184 
3 185 186 184 
3 41 188 187 
3 188 43 189 
3 189 44 187 
3 188 189 187 
3 191 45 192 
3 41 187 186 
3 187 44 190 
3 43 194 193 
3 194 46 195 
3 195 47 193 
3 194 195 193 
3 197 38 176 
3 36 173 198 
3 173 35 199 
3 199 47 198 
3 173 199 198 
3 196 36 198 
3 198 47 195 
3 196 198 195 
3 35 170 200 
3 170 34 201 
3 201 48 200 
3 170 201 200 
3 168 33 203 
3 203 49 202 
3 168 203 202 
3 49 205 204 
3 206 48 204 
3 205 206 204 
3 204 48 201 
3 43 193 189 
3 207 44 189 
3 193 207 189 
3 199 35 200 
3 200 48 208 
3 48 206 209 
3 206 45 191 
3 206 191 209 
3 208 48 209 
3 209 44 207 
3 208 209 207 
3 0 210 99 
3 210 50 211 
3 211 1 99 
3 210 211 99 
3 50 213 212 
3 214 52 212 
3 213 214 212 
3 52 216 215 
3 216 3 102 
3 102 1 215 
3 216 102 215 
3 50 212 211 
3 212 52 215 
3 215 1 211 
3 212 215 211 
3 219 54 217 
3 53 221 220 
3 221 25 222 
3 222 55 220 
3 221 222 220 
3 220 55 223 
3 223 54 219 
3 220 223 219 
3 56 226 225 
3 227 58 225 
3 226 227 225 
3 229 8 111 
3 6 108 230 
3 108 3 231 
3 231 58 230 
3 108 231 230 
3 228 6 230 
3 230 58 227 
3 228 230 227 
3 51 217 214 
3 217 54 232 
3 232 52 214 
3 217 232 214 
3 224 56 225 
3 225 58 233 
3 224 225 233 
3 58 231 234 
3 231 3 216 
3 231 216 234 
3 233 58 234 
3 234 52 232 
3 38 235 177 
3 235 59 236 
3 236 39 177 
3 235 236 177 
3 59 238 237 
3 238 60 239 
3 239 61 237 
3 238 239 237 
3 241 30 179 
3 179 39 240 
3 59 237 236 
3 237 61 240 
3 240 39 236 
3 237 240 236 
3 244 63 242 
3 243 244 242 
3 62 246 245 
3 246 8 229 
3 229 57 245 
3 246 229 245 
3 245 247 244 
3 55 222 251 
3 222 25 154 
3 154 27 251 
3 222 154 251 
3 27 162 252 
3 162 253 252 
3 55 251 250 
3 251 27 252 
3 251 252 250 
3 254 61 239 
3 249 64 255 
3 248 249 255 
3 64 253 256 
3 253 241 256 
3 255 64 256 
3 255 256 254 
3 13 141 257 
3 141 21 258 
3 258 65 257 
3 141 258 257 
3 21 138 259 
3 138 18 260 
3 260 66 259 
3 138 260 259 
3 66 262 261 
3 262 67 263 
3 263 65 261 
3 262 263 261 
3 21 259 258 
3 259 66 261 
3 261 65 258 
3 259 261 258 
3 18 132 264 
3 132 16 265 
3 265 68 264 
3 132 265 264 
3 16 129 266 
3 129 15 267 
3 267 69 266 
3 129 267 266 
3 69 269 268 
3 269 70 270 
3 270 68 268 
3 269 270 268 
3 16 266 265 
3 266 69 268 
3 268 68 265 
3 266 268 265 
3 272 71 273 
3 273 72 271 
3 272 273 271 
3 71 275 274 
3 275 33 276 
3 276 73 274 
3 275 276 274 
3 73 278 277 
3 278 67 279 
3 279 72 277 
3 278 279 277 
3 71 274 273 
3 274 73 277 
3 277 72 273 
3 274 277 273 
3 18 264 260 
3 264 68 280 
3 280 66 260 
3 264 280 260 
3 271 72 281 
3 72 279 282 
3 279 67 262 
3 262 66 282 
3 279 262 282 
3 68 281 280 
3 281 72 282 
3 282 66 280 
3 281 282 280 
3 40 184 283 
3 184 42 284 
3 284 74 283 
3 184 284 283 
3 192 45 286 
3 75 288 287 
3 288 76 289 
3 289 74 287 
3 288 289 287 
3 42 285 284 
3 285 75 287 
3 287 74 284 
3 285 287 284 
3 291 77 290 
3 205 291 290 
3 49 203 292 
3 203 33 275 
3 275 71 292 
3 203 275 292 
3 71 272 293 
3 292 71 293 
3 293 77 291 
3 292 293 291 
3 269 69 296 
3 296 78 295 
3 269 296 295 
3 69 267 297 
3 267 15 298 
3 298 79 297 
3 267 298 297 
3 79 300 299 
3 300 76 301 
3 301 78 299 
3 300 301 299 
3 69 297 296 
3 297 79 299 
3 299 78 296 
3 297 299 296 
3 45 290 286 
3 77 294 303 
3 295 78 303 
3 78 301 304 
3 301 76 288 
3 288 75 304 
3 301 288 304 
3 77 303 302 
3 303 78 304 
3 0 98 210 
3 98 2 305 
3 305 50 210 
3 98 305 210 
3 2 106 306 
3 106 5 307 
3 307 80 306 
3 106 307 306 
3 80 309 308 
3 309 51 213 
3 213 50 308 
3 2 306 305 
3 306 80 308 
3 308 50 305 
3 306 308 305 
3 5 123 310 
3 123 14 311 
3 311 81 310 
3 123 311 310 
3 14 121 312 
3 121 13 313 
3 313 82 312 
3 121 313 312 
3 315 83 316 
3 14 312 311 
3 312 82 314 
3 314 81 311 
3 312 314 311 
3 83 318 317 
3 318 84 319 
3 319 85 317 
3 318 319 317 
3 321 25 221 
3 221 53 320 
3 321 221 320 
3 53 218 322 
3 218 51 323 
3 218 323 322 
3 320 53 322 
3 5 310 307 
3 310 81 324 
3 324 80 307 
3 310 324 307 
3 316 83 317 
3 317 85 325 
3 316 317 325 
3 323 51 309 
3 325 85 326 
3 33 167 276 
3 167 31 327 
3 327 73 276 
3 167 327 276 
3 31 164 328 
3 164 28 329 
3 329 86 328 
3 164 329 328 
3 86 331 330 
3 331 67 278 
3 278 73 330 
3 331 278 330 
3 31 328 327 
3 328 86 330 
3 330 73 327 
3 328 330 327 
3 28 158 332 
3 158 26 333 
3 158 333 332 
3 26 155 334 
3 155 25 321 
3 155 321 334 
3 84 318 335 
3 318 83 336 
3 336 87 335 
3 318 336 335 
3 26 334 333 
3 83 315 337 
3 82 313 339 
3 313 13 257 
3 257 65 339 
3 313 257 339 
3 65 263 340 
3 263 67 341 
3 341 88 340 
3 263 341 340 
3 82 339 338 
3 339 65 340 
3 340 88 338 
3 339 340 338 
3 28 332 329 
3 87 336 343 
3 336 83 337 
3 336 337 343 
3 88 341 344 
3 341 67 331 
3 331 86 344 
3 341 331 344 
3 87 343 342 
3 8 246 147 
3 246 62 345 
3 345 24 147 
3 246 345 147 
3 243 60 347 
3 347 89 346 
3 243 347 346 
3 89 349 348 
3 349 20 149 
3 149 24 348 
3 349 149 348 
3 62 346 345 
3 346 89 348 
3 348 24 345 
3 346 348 345 
3 60 238 350 
3 238 59 351 
3 351 90 350 
3 238 351 350 
3 59 235 352 
3 235 38 353 
3 353 91 352 
3 235 353 352 
3 91 355 354 
3 355 92 356 
3 356 90 354 
3 355 356 354 
3 59 352 351 
3 352 91 354 
3 354 90 351 
3 352 354 351 
3 92 358 357 
3 358 93 359 
3 359 94 357 
3 358 359 357 
3 93 361 360 
3 361 15 128 
3 128 17 360 
3 361 128 360 
3 17 136 362 
3 136 20 363 
3 363 94 362 
3 136 363 362 
3 93 360 359 
3 360 17 362 
3 362 94 359 
3 360 362 359 
3 60 350 347 
3 350 90 364 
3 364 89 347 
3 350 364 347 
3 90 356 365 
3 356 92 357 
3 357 94 365 
3 356 357 365 
3 94 363 366 
3 363 20 349 
3 349 89 366 
3 363 349 366 
3 90 365 364 
3 365 94 366 
3 366 89 364 
3 365 366 364 
3 40 283 185 
3 283 74 367 
3 367 41 185 
3 283 367 185 
3 74 289 368 
3 289 76 369 
3 369 95 368 
3 289 369 368 
3 95 371 370 
3 371 43 188 
3 188 41 370 
3 371 188 370 
3 74 368 367 
3 368 95 370 
3 370 41 367 
3 368 370 367 
3 76 300 372 
3 300 79 373 
3 373 96 372 
3 300 373 372 
3 79 298 374 
3 298 15 361 
3 361 93 374 
3 298 361 374 
3 93 358 375 
3 358 92 376 
3 376 96 375 
3 358 376 375 
3 79 374 373 
3 374 93 375 
3 375 96 373 
3 374 375 373 
3 92 355 377 
3 355 91 378 
3 378 97 377 
3 355 378 377 
3 91 353 379 
3 353 38 197 
3 197 46 379 
3 353 197 379 
3 46 194 380 
3 194 43 381 
3 381 97 380 
3 194 381 380 
3 91 379 378 
3 379 46 380 
3 380 97 378 
3 379 380 378 
3 76 372 369 
3 372 96 382 
3 382 95 369 
3 372 382 369 
3 96 376 383 
3 376 92 377 
3 377 97 383 
3 376 377 383 
3 97 381 384 
3 381 43 371 
3 371 95 384 
3 381 371 384 
3 96 383 382 
3 383 97 384 
3 384 95 382 
3 383 384 382 
